<svg stroke-width="0.501" stroke-linejoin="bevel" fill-rule="evenodd" xmlns:xlink="http://www.w3.org/1999/xlink" xmlns="http://www.w3.org/2000/svg" version="1.1" overflow="visible" width="150pt" height="22.5pt" viewBox="0 0 150 22.5">
 <g id="Document" fill="none" stroke="white" font-family="Times New Roman" font-size="16" transform="scale(1 -1)">
  <g id="Spread" transform="translate(0 -22.5)">
   <g id="Layer 1">
    <path d="M 1.625,5.183 L 5.661,21.419 L 12.021,21.419 C 13.223,21.419 14.133,21.171 14.749,20.674 C 15.366,20.178 15.674,19.457 15.674,18.51 C 15.674,17.953 15.561,17.337 15.336,16.661 C 15.215,16.33 15.072,16.029 14.907,15.759 C 14.742,15.488 14.524,15.217 14.253,14.947 C 13.651,14.316 12.945,13.902 12.133,13.707 C 12.313,13.707 12.486,13.677 12.652,13.616 C 12.817,13.557 12.983,13.474 13.148,13.368 C 13.9,12.903 14.276,12.151 14.277,11.113 C 14.276,10.738 14.231,10.354 14.141,9.964 C 14.051,9.573 13.893,9.137 13.668,8.656 C 12.66,6.34 10.826,5.183 8.165,5.183 L 1.625,5.183 Z M 7.803,8.271 C 8.179,8.271 8.524,8.395 8.84,8.643 C 9.155,8.891 9.426,9.279 9.651,9.805 C 9.771,10.06 9.846,10.278 9.876,10.459 C 9.906,10.639 9.921,10.82 9.921,11 C 9.921,11.842 9.516,12.263 8.704,12.263 L 7.69,12.263 L 6.699,8.271 L 7.803,8.271 Z M 9.292,15.038 C 9.578,15.038 9.829,15.094 10.047,15.207 C 10.265,15.32 10.487,15.519 10.713,15.805 C 10.833,15.955 10.916,16.105 10.961,16.256 C 11.096,16.662 11.164,17 11.164,17.271 C 11.164,17.948 10.773,18.286 9.991,18.286 L 9.202,18.286 L 8.39,15.038 L 9.292,15.038 Z" fill-rule="nonzero" stroke-linejoin="round" stroke-linecap="round" stroke="none" stroke-width="0.662" fill="#FFFFFF" marker-start="none" marker-end="none" stroke-miterlimit="79.8403193612775"/>
    <path d="M 14.203,5.183 L 17.247,17.361 L 21.306,17.361 L 18.262,5.183 L 14.203,5.183 Z M 17.472,18.33 L 18.239,21.419 L 22.298,21.419 L 21.532,18.33 L 17.472,18.33 Z" fill-rule="nonzero" stroke-linejoin="round" stroke-linecap="round" stroke="none" stroke-width="0.662" fill="#FFFFFF" marker-start="none" marker-end="none" stroke-miterlimit="79.8403193612775"/>
    <path d="M 21.058,8.069 L 22.689,14.606 L 21.203,14.606 L 21.89,17.361 L 23.377,17.362 L 24.257,20.901 L 28.319,20.901 L 27.433,17.363 L 29.016,17.361 L 28.349,14.606 L 26.743,14.608 L 25.275,8.746 C 25.245,8.595 25.23,8.482 25.23,8.407 C 25.23,8.015 25.455,7.82 25.906,7.82 L 26.651,7.82 L 25.997,5.183 C 25.696,5.138 25.418,5.1 25.162,5.07 C 24.906,5.04 24.651,5.025 24.396,5.025 C 24.14,5.025 23.907,5.025 23.696,5.025 C 23.486,5.025 23.298,5.025 23.133,5.025 C 23.012,5.025 22.922,5.032 22.862,5.047 C 22.08,5.122 21.546,5.25 21.261,5.431 C 20.975,5.611 20.832,5.949 20.833,6.445 C 20.832,6.746 20.877,7.137 20.968,7.618 L 21.058,8.069 Z" fill-rule="nonzero" stroke-linejoin="round" stroke-linecap="round" stroke="none" stroke-width="0.662" fill="#FFFFFF" marker-start="none" marker-end="none" stroke-miterlimit="79.8403193612775"/>
    <path d="M 38.632,12.874 L 34.912,12.874 L 35.002,13.325 L 35.092,13.753 C 35.137,14.098 35.159,14.331 35.159,14.452 C 35.159,14.512 35.144,14.617 35.114,14.767 C 35.009,15.128 34.761,15.308 34.37,15.308 C 34.205,15.308 34.024,15.248 33.829,15.128 C 33.498,14.932 33.22,14.583 32.995,14.079 C 32.769,13.575 32.487,12.665 32.149,11.35 C 31.811,10.034 31.642,9.15 31.642,8.699 C 31.642,8.534 31.657,8.308 31.687,8.023 C 31.717,7.737 31.98,7.594 32.476,7.594 C 32.536,7.594 32.619,7.609 32.724,7.639 C 32.799,7.669 32.889,7.707 32.995,7.752 C 33.25,7.887 33.465,8.083 33.638,8.339 C 33.81,8.594 33.972,9 34.122,9.556 L 34.28,10.211 L 34.325,10.391 L 38.024,10.391 L 37.754,9.331 C 37.318,8.038 36.724,7.054 35.972,6.377 C 35.22,5.701 34.273,5.28 33.131,5.115 C 32.469,5.024 31.875,4.979 31.349,4.979 C 28.854,4.979 27.606,6.121 27.606,8.407 C 27.606,9.203 27.741,10.143 28.012,11.225 C 28.583,13.435 29.324,15.047 30.233,16.062 C 31.142,17.077 32.303,17.66 33.716,17.81 C 34.423,17.885 34.987,17.923 35.408,17.923 C 36.67,17.923 37.572,17.69 38.114,17.224 C 38.655,16.758 38.925,16.007 38.925,14.97 C 38.925,14.79 38.914,14.576 38.892,14.328 C 38.869,14.08 38.828,13.791 38.767,13.46 L 38.632,12.874 Z" fill-rule="nonzero" stroke-linejoin="round" stroke-linecap="round" stroke="none" stroke-width="0.662" fill="#FFFFFF" marker-start="none" marker-end="none" stroke-miterlimit="79.8403193612775"/>
    <path d="M 39.357,12.261 C 39.959,14.216 40.665,15.614 41.477,16.456 C 42.289,17.298 43.386,17.719 44.769,17.719 C 46.663,17.719 47.982,17.505 48.727,17.076 C 49.471,16.648 49.843,15.817 49.843,14.584 C 49.843,13.953 49.737,13.126 49.527,12.104 L 49.076,10.277 C 48.475,8.322 47.761,6.924 46.934,6.082 C 46.107,5.24 44.987,4.82 43.574,4.82 C 41.785,4.82 40.545,4.992 39.854,5.338 C 38.967,5.789 38.523,6.661 38.523,7.954 C 38.523,9.006 38.801,10.442 39.357,12.261 Z M 43.777,7.527 C 43.958,7.662 44.116,7.847 44.251,8.08 C 44.386,8.313 44.521,8.655 44.657,9.105 C 44.942,10.203 45.22,11.311 45.491,12.431 C 45.762,13.55 45.874,14.268 45.829,14.584 C 45.784,14.974 45.551,15.17 45.13,15.17 C 45.085,15.17 44.987,15.155 44.837,15.125 C 44.567,15.035 44.311,14.779 44.071,14.358 C 43.77,13.832 43.589,13.351 43.529,12.915 C 43.274,11.924 43.086,11.172 42.966,10.661 C 42.605,9.098 42.455,8.196 42.515,7.956 C 42.635,7.535 42.868,7.324 43.214,7.324 C 43.409,7.324 43.597,7.392 43.777,7.527 Z" fill-rule="nonzero" stroke-linejoin="round" stroke-linecap="round" stroke="none" stroke-width="0.662" fill="#FFFFFF" marker-start="none" marker-end="none" stroke-miterlimit="79.8403193612775"/>
    <path d="M 49.34,5.183 L 52.384,17.361 L 56.443,17.361 L 53.399,5.183 L 49.34,5.183 Z M 52.609,18.33 L 53.376,21.419 L 57.435,21.419 L 56.669,18.33 L 52.609,18.33 Z" fill-rule="nonzero" stroke-linejoin="round" stroke-linecap="round" stroke="none" stroke-width="0.662" fill="#FFFFFF" marker-start="none" marker-end="none" stroke-miterlimit="79.8403193612775"/>
    <path d="M 55,5.183 L 58.044,17.36 L 61.923,17.36 L 61.63,16.142 L 61.99,16.503 C 62.607,17.09 63.343,17.465 64.2,17.629 C 64.621,17.703 64.982,17.741 65.283,17.741 C 66.019,17.741 66.579,17.556 66.963,17.188 C 67.346,16.82 67.538,16.298 67.538,15.622 C 67.538,15.381 67.515,15.126 67.47,14.855 L 67.312,14.179 L 65.08,5.183 L 61.021,5.183 L 63.074,13.413 L 63.118,13.684 C 63.133,13.745 63.14,13.797 63.14,13.842 C 63.14,13.917 63.14,13.97 63.14,14 C 63.14,14.451 62.937,14.677 62.532,14.677 C 62.427,14.677 62.336,14.669 62.261,14.654 C 61.765,14.579 61.405,14.226 61.179,13.594 L 61.095,13.345 L 59.059,5.183 L 55,5.183 Z" fill-rule="nonzero" stroke-linejoin="round" stroke-linecap="round" stroke="none" stroke-width="0.662" fill="#FFFFFF" marker-start="none" marker-end="none" stroke-miterlimit="79.8403193612775"/>
    <path d="M 67.726,10.033 L 68.583,13.48 L 75.641,13.48 L 74.784,10.033 L 67.726,10.033 Z" fill-rule="nonzero" stroke-linejoin="round" stroke-linecap="round" stroke="none" stroke-width="0.662" fill="#FFFFFF" marker-start="none" marker-end="none" stroke-miterlimit="79.8403193612775"/>
    <path d="M 86.142,10.666 L 80.155,10.666 L 79.656,8.701 C 79.641,8.4 79.641,8.166 79.656,8 C 79.701,7.594 79.956,7.391 80.422,7.391 C 80.512,7.391 80.674,7.428 80.907,7.504 C 81.14,7.579 81.343,7.73 81.515,7.956 C 81.688,8.183 81.827,8.514 81.933,8.952 L 82.045,9.45 L 85.832,9.45 C 85.772,9.224 85.723,9.051 85.685,8.93 C 85.648,8.81 85.569,8.615 85.449,8.343 C 84.517,6.342 83.043,5.236 81.029,5.025 C 80.593,4.995 80.281,4.973 80.093,4.958 C 79.905,4.943 79.744,4.935 79.608,4.935 C 78.285,4.935 77.316,5.198 76.699,5.724 C 76.083,6.25 75.775,7.1 75.774,8.272 C 75.775,9.098 75.94,10.173 76.27,11.496 C 76.782,13.435 77.484,14.904 78.379,15.903 C 79.273,16.903 80.352,17.478 81.614,17.628 C 82.261,17.703 82.802,17.741 83.238,17.741 C 84.5,17.741 85.421,17.489 86,16.986 C 86.579,16.483 86.868,15.698 86.868,14.631 C 86.868,14.451 86.857,14.237 86.834,13.989 C 86.811,13.742 86.77,13.453 86.709,13.122 C 86.573,12.431 86.43,11.785 86.278,11.184 C 86.248,11.049 86.203,10.877 86.142,10.666 Z M 82.947,12.874 L 83.037,13.234 C 83.172,13.819 83.24,14.216 83.24,14.426 C 83.24,14.98 82.977,15.258 82.45,15.258 C 82.345,15.258 82.202,15.239 82.021,15.202 C 81.841,15.164 81.634,14.988 81.401,14.673 C 81.168,14.358 80.969,13.871 80.803,13.211 L 80.713,12.874 L 82.947,12.874 Z" fill-rule="nonzero" stroke-linejoin="round" stroke-linecap="round" stroke="none" stroke-width="0.662" fill="#FFFFFF" marker-start="none" marker-end="none" stroke-miterlimit="79.8403193612775"/>
    <path d="M 84.854,5.183 L 89.612,11.498 L 88.011,17.361 L 92.16,17.361 L 92.566,14 L 94.641,17.361 L 98.768,17.361 L 94.257,11.498 L 95.858,5.183 L 91.732,5.183 L 91.281,8.839 L 88.981,5.183 L 84.854,5.183 Z" fill-rule="nonzero" stroke-linejoin="round" stroke-linecap="round" stroke="none" stroke-width="0.662" fill="#FFFFFF" marker-start="none" marker-end="none" stroke-miterlimit="79.8403193612775"/>
    <path d="M 95.448,1.125 L 99.485,17.36 L 103.386,17.36 L 103.116,16.21 C 103.537,16.766 104.108,17.18 104.83,17.451 C 105.085,17.571 105.318,17.647 105.529,17.677 C 105.739,17.707 105.912,17.734 106.047,17.756 C 106.183,17.779 106.325,17.79 106.476,17.79 C 107.288,17.79 107.926,17.55 108.392,17.069 C 108.859,16.588 109.092,15.911 109.092,15.039 C 109.092,14.829 109.084,14.671 109.069,14.566 C 108.979,13.754 108.806,12.837 108.55,11.815 C 108.129,10.131 107.716,8.861 107.31,8.004 C 106.904,7.147 106.423,6.486 105.867,6.02 C 105.371,5.614 104.886,5.317 104.412,5.129 C 103.939,4.941 103.484,4.847 103.048,4.847 C 102.552,4.847 102.123,4.96 101.763,5.185 C 101.402,5.41 101.139,5.726 100.973,6.132 C 100.898,6.372 100.861,6.507 100.861,6.537 L 99.508,1.125 C 99.342,1.125 99.143,1.125 98.91,1.125 C 98.677,1.125 98.448,1.125 98.222,1.125 C 97.606,1.125 97.087,1.125 96.666,1.125 C 96.245,1.125 95.839,1.125 95.448,1.125 Z M 102.574,8.002 C 102.86,8.077 103.123,8.31 103.364,8.701 C 103.604,9.092 103.86,9.769 104.13,10.731 L 104.288,11.362 L 104.333,11.498 L 104.627,12.873 C 104.687,13.114 104.724,13.317 104.739,13.482 C 104.754,13.647 104.762,13.82 104.762,14.001 C 104.762,14.467 104.521,14.7 104.04,14.7 C 103.875,14.7 103.691,14.662 103.488,14.587 C 103.285,14.512 103.082,14.286 102.879,13.911 C 102.676,13.535 102.424,12.843 102.123,11.836 L 101.988,11.34 L 101.672,9.897 C 101.582,9.446 101.537,9.122 101.537,8.927 C 101.537,8.852 101.537,8.784 101.537,8.724 C 101.567,8.664 101.582,8.626 101.582,8.611 C 101.672,8.19 101.92,7.98 102.326,7.98 C 102.432,7.98 102.514,7.987 102.574,8.002 Z" fill-rule="nonzero" stroke-linejoin="round" stroke-linecap="round" stroke="none" stroke-width="0.662" fill="#FFFFFF" marker-start="none" marker-end="none" stroke-miterlimit="79.8403193612775"/>
    <path d="M 108.207,5.183 L 111.251,17.36 L 115.153,17.36 L 114.724,15.691 L 114.995,16.007 C 115.536,16.623 116.05,17.062 116.539,17.325 C 117.028,17.587 117.588,17.719 118.219,17.719 L 118.783,17.719 L 117.836,13.842 L 117.317,13.91 C 116.28,13.91 115.502,13.756 114.983,13.448 C 114.464,13.139 114.115,12.602 113.934,11.835 L 112.266,5.183 L 108.207,5.183 Z" fill-rule="nonzero" stroke-linejoin="round" stroke-linecap="round" stroke="none" stroke-width="0.662" fill="#FFFFFF" marker-start="none" marker-end="none" stroke-miterlimit="79.8403193612775"/>
    <path d="M 127.347,10.666 L 121.36,10.666 L 120.861,8.701 C 120.846,8.4 120.846,8.166 120.861,8 C 120.906,7.594 121.161,7.391 121.627,7.391 C 121.717,7.391 121.879,7.428 122.112,7.504 C 122.345,7.579 122.548,7.73 122.72,7.956 C 122.893,8.183 123.032,8.514 123.138,8.952 L 123.25,9.45 L 127.037,9.45 C 126.977,9.224 126.928,9.051 126.89,8.93 C 126.853,8.81 126.774,8.615 126.654,8.343 C 125.722,6.342 124.248,5.236 122.234,5.025 C 121.798,4.995 121.486,4.973 121.298,4.958 C 121.11,4.943 120.949,4.935 120.813,4.935 C 119.49,4.935 118.521,5.198 117.904,5.724 C 117.288,6.25 116.98,7.1 116.979,8.272 C 116.98,9.098 117.145,10.173 117.475,11.496 C 117.987,13.435 118.689,14.904 119.584,15.903 C 120.478,16.903 121.557,17.478 122.819,17.628 C 123.466,17.703 124.007,17.741 124.443,17.741 C 125.705,17.741 126.626,17.489 127.205,16.986 C 127.784,16.483 128.073,15.698 128.073,14.631 C 128.073,14.451 128.062,14.237 128.039,13.989 C 128.016,13.742 127.975,13.453 127.914,13.122 C 127.778,12.431 127.635,11.785 127.483,11.184 C 127.453,11.049 127.408,10.877 127.347,10.666 Z M 124.152,12.874 L 124.242,13.234 C 124.377,13.819 124.445,14.216 124.445,14.426 C 124.445,14.98 124.182,15.258 123.655,15.258 C 123.55,15.258 123.407,15.239 123.226,15.202 C 123.046,15.164 122.839,14.988 122.606,14.673 C 122.373,14.358 122.174,13.871 122.008,13.211 L 121.918,12.874 L 124.152,12.874 Z" fill-rule="nonzero" stroke-linejoin="round" stroke-linecap="round" stroke="none" stroke-width="0.662" fill="#FFFFFF" marker-start="none" marker-end="none" stroke-miterlimit="79.8403193612775"/>
    <path d="M 127.676,9.02 L 131.352,9.02 L 131.33,8.953 L 131.262,8.658 C 131.217,8.447 131.195,8.259 131.195,8.093 C 131.195,7.581 131.458,7.324 131.984,7.324 C 132.119,7.324 132.33,7.34 132.615,7.37 C 132.901,7.4 133.141,7.641 133.337,8.092 C 133.427,8.317 133.472,8.52 133.472,8.701 C 133.472,8.911 133.397,9.092 133.246,9.242 L 133.111,9.378 L 133.021,9.423 L 132.886,9.468 L 130.562,10.416 C 129.946,10.671 129.514,11.021 129.266,11.465 C 129.017,11.909 128.893,12.522 128.893,13.304 C 128.999,14.357 129.487,15.335 130.359,16.237 C 130.75,16.628 131.22,16.94 131.769,17.173 C 132.317,17.406 132.99,17.568 133.787,17.659 C 133.953,17.659 134.137,17.666 134.34,17.681 C 134.543,17.696 134.689,17.704 134.779,17.704 C 134.93,17.704 135.099,17.696 135.287,17.681 C 135.475,17.666 135.614,17.659 135.704,17.659 C 137.658,17.448 138.636,16.681 138.636,15.357 C 138.636,15.056 138.587,14.732 138.488,14.387 L 138.39,13.935 L 138.39,13.822 L 134.85,13.822 L 134.872,13.89 L 134.939,14.185 C 134.968,14.366 134.983,14.494 134.983,14.569 C 134.983,15.022 134.712,15.248 134.171,15.248 C 134.066,15.248 133.983,15.248 133.923,15.248 C 133.397,15.203 133.059,14.939 132.909,14.457 C 132.849,14.246 132.819,14.11 132.819,14.05 C 132.819,13.824 132.962,13.635 133.247,13.485 L 133.405,13.417 L 133.518,13.371 L 136.156,12.331 C 137.102,11.954 137.576,11.246 137.576,10.206 C 137.576,9.98 137.561,9.791 137.531,9.64 C 137.501,9.49 137.486,9.377 137.486,9.301 C 137.396,8.864 137.261,8.442 137.08,8.035 C 136.148,5.924 134.231,4.869 131.33,4.869 L 130.54,4.869 C 128.481,5.097 127.451,6.002 127.451,7.583 C 127.451,7.933 127.496,8.313 127.586,8.724 L 127.676,9.02 Z" fill-rule="nonzero" stroke-linejoin="round" stroke-linecap="round" stroke="none" stroke-width="0.662" fill="#FFFFFF" marker-start="none" marker-end="none" stroke-miterlimit="79.8403193612775"/>
    <path d="M 138.005,9.02 L 141.681,9.02 L 141.659,8.953 L 141.591,8.658 C 141.546,8.447 141.524,8.259 141.524,8.093 C 141.524,7.581 141.787,7.324 142.313,7.324 C 142.448,7.324 142.659,7.34 142.944,7.37 C 143.23,7.4 143.47,7.641 143.666,8.092 C 143.756,8.317 143.801,8.52 143.801,8.701 C 143.801,8.911 143.726,9.092 143.575,9.242 L 143.44,9.378 L 143.35,9.423 L 143.215,9.468 L 140.891,10.416 C 140.275,10.671 139.843,11.021 139.595,11.465 C 139.346,11.909 139.222,12.522 139.222,13.304 C 139.328,14.357 139.816,15.335 140.688,16.237 C 141.079,16.628 141.549,16.94 142.098,17.173 C 142.646,17.406 143.319,17.568 144.116,17.659 C 144.282,17.659 144.466,17.666 144.669,17.681 C 144.872,17.696 145.018,17.704 145.108,17.704 C 145.259,17.704 145.428,17.696 145.616,17.681 C 145.804,17.666 145.943,17.659 146.033,17.659 C 147.987,17.448 148.965,16.681 148.965,15.357 C 148.965,15.056 148.916,14.732 148.817,14.387 L 148.719,13.935 L 148.719,13.822 L 145.179,13.822 L 145.201,13.89 L 145.268,14.185 C 145.297,14.366 145.312,14.494 145.312,14.569 C 145.312,15.022 145.041,15.248 144.5,15.248 C 144.395,15.248 144.312,15.248 144.252,15.248 C 143.726,15.203 143.388,14.939 143.238,14.457 C 143.178,14.246 143.148,14.11 143.148,14.05 C 143.148,13.824 143.291,13.635 143.576,13.485 L 143.734,13.417 L 143.847,13.371 L 146.485,12.331 C 147.431,11.954 147.905,11.246 147.905,10.206 C 147.905,9.98 147.89,9.791 147.86,9.64 C 147.83,9.49 147.815,9.377 147.815,9.301 C 147.725,8.864 147.59,8.442 147.409,8.035 C 146.477,5.924 144.56,4.869 141.659,4.869 L 140.869,4.869 C 138.81,5.097 137.78,6.002 137.78,7.583 C 137.78,7.933 137.825,8.313 137.915,8.724 L 138.005,9.02 Z" fill-rule="nonzero" stroke-linejoin="round" stroke-linecap="round" stroke="none" stroke-width="0.662" fill="#FFFFFF" marker-start="none" marker-end="none" stroke-miterlimit="79.8403193612775"/>
   </g>
  </g>
 </g>
</svg>
