<svg stroke-width="0.501" stroke-linejoin="bevel" fill-rule="evenodd" xmlns:xlink="http://www.w3.org/1999/xlink" xmlns="http://www.w3.org/2000/svg" version="1.1" overflow="visible" width="18pt" height="18pt" viewBox="0 0 18 18">
 <defs>
  <marker id="DefaultArrowScaled" markerUnits="strokeWidth" viewBox="0 0 1 1" markerWidth="13" markerHeight="13" overflow="visible" orient="auto">
   <g transform="scale(0.0092592592)">
    <path d="M -9,0 L -9,-45 C -9,-51.708 2.808,-56.580 9,-54 L 117,-9 C 120.916,-7.369 126.000,-4.242 126,0 C 126,4.242 120.916,7.369 117,9 L 9,54 C 2.808,56.580 -9,51.708 -9,45 z"/>
   </g>
  </marker>
 </defs>
 <g id="Document" fill="none" stroke="black" transform="scale(1 -1)">
  <g id="Spread" transform="translate(0 -18)">
   <g id="Layer 1">
    <path d="M -1.863,17.836 L -1.863,0.448 L 15.525,0.448 L 15.525,17.836 L -1.863,17.836 Z" stroke-linejoin="miter" stroke-linecap="round" stroke="none" stroke-width="0.003" marker-start="none" marker-end="none" stroke-miterlimit="79.8403193612775"/>
    <g id="Group" stroke-linecap="round">
     <path d="M -0.001,18.207 L -0.001,-0.301 L 18.507,-0.301 L 18.507,18.207 L -0.001,18.207 Z" stroke="none" stroke-width="2.792" stroke-linejoin="miter" marker-start="none" marker-end="none" stroke-miterlimit="79.8403193612775"/>
     <g id="Group_1" fill="#333333">
      <path d="M 10.038,10.129 L 12.577,12.668" fill="none" stroke="#333333" stroke-width="2.845" stroke-linejoin="round" stroke-miterlimit="79.8403193612775"/>
      <path d="M 14.789,10.519 L 10.524,14.737 C 9.764,15.489 10.094,16.328 11.26,16.61 L 16.144,17.789 C 17.311,18.071 18.041,17.351 17.773,16.184 L 16.65,11.272 C 16.382,10.104 15.549,9.767 14.789,10.519 Z" stroke="none" stroke-width="0.044" marker-end="url(#DefaultArrowScaled)" stroke-linejoin="miter" marker-start="none" stroke-miterlimit="79.8403193612775"/>
     </g>
     <path d="M 0.434,2.559 L 0.434,12.928 C 0.434,14.057 1.348,14.971 2.478,14.971 L 8.582,14.971 C 8.584,14.969 8.587,14.968 8.589,14.965 L 10.43,13.143 L 3.791,13.143 C 2.946,13.143 2.261,12.46 2.261,11.616 L 2.261,3.87 C 2.261,3.027 2.946,2.342 3.791,2.342 L 11.535,2.342 C 12.379,2.342 13.063,3.027 13.063,3.87 L 13.063,10.32 L 13.241,10.363 L 14.892,8.731 L 14.892,2.559 C 14.892,1.429 13.976,0.514 12.847,0.514 L 2.478,0.514 C 1.348,0.514 0.434,1.429 0.434,2.559 Z" stroke="none" fill="#333333" stroke-width="3.494" stroke-linejoin="miter" marker-start="none" marker-end="none" stroke-miterlimit="79.8403193612775"/>
    </g>
   </g>
  </g>
 </g>
</svg>
