<?xml version="1.0" standalone="no"?>
<!DOCTYPE svg PUBLIC "-//W3C//DTD SVG 1.1//EN" "http://www.w3.org/Graphics/SVG/1.1/DTD/svg11.dtd">
<!--Generator: Xara Designer (www.xara.com), SVG filter version: 6.0.0.4-->
<svg stroke-width="0.501" stroke-linejoin="bevel" fill-rule="evenodd" xmlns:xlink="http://www.w3.org/1999/xlink" xmlns="http://www.w3.org/2000/svg" version="1.1" overflow="visible" width="144pt" height="144pt" viewBox="0 0 144 144">
 <g id="Document" fill="none" stroke="black" font-family="Times New Roman" font-size="16" transform="scale(1 -1)">
  <g id="Spread" transform="translate(0 -144)">
   <g id="Layer 1">
    <g id="Group" stroke-linecap="round">
     <g id="Group_1">
      <path d="M 80.262,80.408 L 99.297,99.44" fill="none" stroke="#e6eafd" stroke-width="21.325" stroke-linejoin="round" stroke-miterlimit="79.8403193612775"/>
      <path d="M 115.875,83.329 L 83.903,114.956 C 78.207,120.593 80.68,126.88 89.423,128.992 L 126.038,137.833 C 134.781,139.945 140.253,134.553 138.251,125.801 L 129.826,88.976 C 127.823,80.224 121.571,77.692 115.875,83.329 Z" fill="#e6eafd" stroke="none" stroke-width="0.333" stroke-linejoin="miter" marker-start="none" stroke-miterlimit="79.8403193612775"/>
     </g>
     <path d="M 8.258,23.655 L 8.258,101.388 C 8.258,109.858 15.115,116.715 23.585,116.715 L 69.345,116.715 C 69.363,116.697 69.38,116.68 69.396,116.664 L 83.201,103.008 L 33.42,103.008 C 27.094,103.008 21.965,97.885 21.965,91.553 L 21.965,33.49 C 21.965,27.166 27.094,22.035 33.42,22.035 L 91.483,22.035 C 97.813,22.035 102.938,27.166 102.938,33.49 L 102.938,81.838 L 104.277,82.161 L 116.643,69.927 L 116.643,23.655 C 116.643,15.186 109.787,8.33 101.318,8.33 L 23.585,8.33 C 15.115,8.33 8.258,15.186 8.258,23.655 Z" fill="#e6eafd" stroke="none" stroke-width="26.196" stroke-linejoin="miter" marker-start="none" marker-end="none" stroke-miterlimit="79.8403193612775"/>
    </g>
   </g>
  </g>
 </g>
</svg>
