<?xml version="1.0" standalone="no"?>
<!DOCTYPE svg PUBLIC "-//W3C//DTD SVG 1.1//EN" "http://www.w3.org/Graphics/SVG/1.1/DTD/svg11.dtd">
<!--Generator: Xara Designer (www.xara.com), SVG filter version: 6.0.0.4-->
<svg stroke-width="0.501" stroke-linejoin="bevel" fill-rule="evenodd" xmlns:xlink="http://www.w3.org/1999/xlink" xmlns="http://www.w3.org/2000/svg" version="1.1" overflow="visible" width="144pt" height="144pt" viewBox="0 0 144 144">
 <defs>
	</defs>
 <g id="Document" fill="none" stroke="black" font-family="Times New Roman" font-size="16" transform="scale(1 -1)">
  <g id="Spread" transform="translate(0 -144)">
   <g id="Layer 1">
    <path d="M 0.251,143.593 L 0.251,-0.406 L 144.25,-0.406 L 144.25,143.593 L 0.251,143.593 Z" stroke-linecap="round" stroke-width="0.682" stroke="none" stroke-linejoin="miter" marker-start="none" marker-end="none" stroke-miterlimit="79.8403193612775"/>
    <path d="M 23.644,8.615 L 23.644,70.753 L 23.463,70.753 L 23.644,70.913 L 23.644,71.036 L 23.78,71.036 L 71.865,113.819 L 120.518,71.007 L 120.447,71.007 L 120.447,8.615 C 120.447,7.337 119.411,6.3 118.135,6.3 L 86.109,6.3 L 86.109,40.149 L 59.147,40.149 L 59.147,6.3 L 25.959,6.3 C 24.681,6.3 23.644,7.337 23.644,8.615 Z M 10.999,67.547 L 2.875,74.816 L 72.25,136.886 L 141.627,74.816 L 133.503,67.547 L 72.252,122.351 L 10.999,67.547 Z M 24.17,101.883 L 24.17,127.634 L 42.959,127.634 L 42.959,118.483 L 24.869,101.883 L 24.17,101.883 Z" fill="#e6eafd" stroke-width="5.007" stroke-linejoin="miter" stroke-linecap="round" stroke="none" marker-start="none" marker-end="none" stroke-miterlimit="79.8403193612775"/>
   </g>
  </g>
 </g>
</svg>
