<svg stroke-width="0.501" stroke-linejoin="bevel" fill-rule="evenodd" xmlns:xlink="http://www.w3.org/1999/xlink" xmlns="http://www.w3.org/2000/svg" version="1.1" overflow="visible" width="192pt" height="192pt" viewBox="0 0 192 192">
 <g id="Document" fill="none" stroke="black" font-family="Times New Roman" font-size="16" transform="scale(1 -1)">
  <g id="Spread" transform="translate(0 -192)">
   <g id="Layer 1">
    <g id="Group" stroke-linecap="round" stroke="none">
     <g id="Group_1" stroke-linejoin="miter">
      <path d="M 29.171,162.684 C 63.059,196.572 118.066,196.572 151.954,162.684 C 185.842,128.796 185.842,73.788 151.954,39.901 C 118.066,6.013 63.059,6.013 29.171,39.901 C -4.717,73.788 -4.717,128.796 29.171,162.684 Z" fill="#f7941a" stroke-width="0.274" marker-start="none" marker-end="none" stroke-miterlimit="79.8403193612775"/>
      <path d="M 90.917,46.648 L 81.351,49.4 L 85.074,64.334 L 77.829,66.285 L 73.8,50.919 L 63.718,53.187 L 67.746,69.302 L 48.604,74.343 L 53.582,84.721 L 61.703,82.896 C 64.677,84.004 65.099,85.47 64.973,86.925 L 75.561,127.993 C 76.025,130.683 74.908,131.864 73.041,132.518 C 70.267,133.277 67.757,134.216 64.034,134.975 L 66.744,145.374 L 86.329,140.396 L 90.158,155.952 L 99.418,153.358 L 96.032,138.498 L 103.71,136.61 L 107.106,151.48 L 116.862,149.403 L 113.086,133.794 C 119.15,131.959 124.107,129.037 128.199,125.22 C 135.866,115.823 133.409,102.017 120.142,98.263 C 124.023,95.858 127.682,93.158 129.212,89.203 C 132.291,81.198 128.621,68.469 119.562,64.071 C 111.261,60.042 102.307,60.917 95.452,62.763 L 90.917,46.648 Z M 106.484,91.66 C 102.539,94.814 95.336,97.134 86.066,98.959 L 80.908,78.298 C 86.498,76.684 92.077,75.419 97.656,75.145 C 111.388,74.153 113.529,86.872 106.484,91.66 Z M 107.233,122.889 C 102.539,124.966 97.825,126.137 93.132,127.171 L 88.597,108.155 C 93.248,107.058 97.91,106.014 104.839,106.014 C 114.499,107.259 117.41,117.32 107.233,122.889 Z" fill="#ffffff" stroke-width="0.232" marker-start="none" marker-end="none" stroke-miterlimit="79.8403193612775"/>
     </g>
     <g id="Group_2" fill-rule="nonzero" stroke-linejoin="round" stroke-width="6.971" fill="#000000" stroke-miterlimit="79.8403193612775">
      <g id="Group_3">
       <path d="M 183.853,49.759 L 134.464,49.759 L 130.361,33.549 C 130.224,31.071 130.224,29.141 130.361,27.77 C 130.73,24.426 132.84,22.749 136.679,22.749 C 137.417,22.749 138.756,23.066 140.686,23.667 C 142.595,24.31 144.262,25.555 145.685,27.421 C 147.12,29.278 148.269,32.02 149.123,35.616 L 150.062,39.729 L 181.29,39.729 C 180.795,37.873 180.394,36.439 180.088,35.437 C 179.782,34.456 179.118,32.832 178.126,30.617 C 170.438,14.101 158.288,4.978 141.678,3.249 C 138.071,3.006 135.497,2.816 133.968,2.679 C 132.418,2.553 131.089,2.5 129.96,2.5 C 119.055,2.5 111.061,4.673 105.967,9.007 C 100.894,13.352 98.352,20.345 98.342,30.016 C 98.352,36.829 99.713,45.699 102.445,56.604 C 106.653,72.592 112.443,84.71 119.825,92.947 C 127.197,101.184 136.099,105.93 146.508,107.174 C 151.834,107.786 156.306,108.102 159.892,108.102 C 170.311,108.102 177.905,106.025 182.683,101.88 C 187.45,97.735 189.833,91.249 189.833,82.453 C 189.833,80.977 189.738,79.216 189.548,77.169 C 189.359,75.123 189.021,72.74 188.515,70.019 C 187.397,64.313 186.226,58.987 184.971,54.03 C 184.729,52.912 184.349,51.499 183.853,49.759 Z M 157.497,67.973 L 158.236,70.947 C 159.354,75.756 159.913,79.036 159.913,80.766 C 159.913,85.333 157.751,87.621 153.405,87.621 C 152.53,87.621 151.359,87.473 149.862,87.157 C 148.375,86.851 146.666,85.406 144.747,82.812 C 142.817,80.196 141.182,76.199 139.811,70.757 L 139.073,67.973 L 157.497,67.973 Z" marker-start="none" marker-end="none"/>
      </g>
     </g>
     <mask id="TranspMask">
      <rect x="-10%" y="-10%" width="120%" height="120%" fill="#7f7f7f" stroke="none"/>
     </mask>
     <g id="Group_4" stroke-linejoin="miter" mask="url(#TranspMask)">
      <path d="M 29.171,162.684 C 63.059,196.572 118.066,196.572 151.954,162.684 C 185.842,128.796 185.842,73.788 151.954,39.901 C 118.066,6.013 63.059,6.013 29.171,39.901 C -4.717,73.788 -4.717,128.796 29.171,162.684 Z" fill="#f7941a" stroke-width="0.274" marker-start="none" marker-end="none" stroke-miterlimit="79.8403193612775"/>
      <path d="M 90.917,46.648 L 81.351,49.4 L 85.074,64.334 L 77.829,66.285 L 73.8,50.919 L 63.718,53.187 L 67.746,69.302 L 48.604,74.343 L 53.582,84.721 L 61.703,82.896 C 64.677,84.004 65.099,85.47 64.973,86.925 L 75.561,127.993 C 76.025,130.683 74.908,131.864 73.041,132.518 C 70.267,133.277 67.757,134.216 64.034,134.975 L 66.744,145.374 L 86.329,140.396 L 90.158,155.952 L 99.418,153.358 L 96.032,138.498 L 103.71,136.61 L 107.106,151.48 L 116.862,149.403 L 113.086,133.794 C 119.15,131.959 124.107,129.037 128.199,125.22 C 135.866,115.823 133.409,102.017 120.142,98.263 C 124.023,95.858 127.682,93.158 129.212,89.203 C 132.291,81.198 128.621,68.469 119.562,64.071 C 111.261,60.042 102.307,60.917 95.452,62.763 L 90.917,46.648 Z M 106.484,91.66 C 102.539,94.814 95.336,97.134 86.066,98.959 L 80.908,78.298 C 86.498,76.684 92.077,75.419 97.656,75.145 C 111.388,74.153 113.529,86.872 106.484,91.66 Z M 107.233,122.889 C 102.539,124.966 97.825,126.137 93.132,127.171 L 88.597,108.155 C 93.248,107.058 97.91,106.014 104.839,106.014 C 114.499,107.259 117.41,117.32 107.233,122.889 Z" fill="#ffffff" stroke-width="0.232" marker-start="none" marker-end="none" stroke-miterlimit="79.8403193612775"/>
     </g>
    </g>
   </g>
  </g>
 </g>
</svg>
