<svg stroke-width="0.501" stroke-linejoin="bevel" fill-rule="evenodd" xmlns:xlink="http://www.w3.org/1999/xlink" xmlns="http://www.w3.org/2000/svg" version="1.1" overflow="visible" width="192pt" height="192pt" viewBox="0 0 192 192">
 <g id="Document" fill="none" stroke="black" transform="scale(1 -1)">
  <g id="Spread" transform="translate(0 -192)">
   <g id="Layer 1">
    <g id="Group" stroke-linejoin="miter" stroke-linecap="round" stroke="none">
     <path d="M 35.171,157.684 C 69.059,191.572 124.066,191.572 157.954,157.684 C 191.842,123.796 191.842,68.788 157.954,34.901 C 124.066,1.013 69.059,1.013 35.171,34.901 C 1.283,68.788 1.283,123.796 35.171,157.684 Z" fill="#f7941a" stroke-width="0.274" marker-start="none" marker-end="none" stroke-miterlimit="79.8403193612775"/>
     <path d="M 96.917,41.648 L 87.351,44.4 L 91.074,59.334 L 83.829,61.285 L 79.8,45.919 L 69.718,48.187 L 73.746,64.302 L 54.604,69.343 L 59.582,79.721 L 67.703,77.896 C 70.677,79.004 71.099,80.47 70.973,81.925 L 81.561,122.993 C 82.025,125.683 80.908,126.864 79.041,127.518 C 76.267,128.277 73.757,129.216 70.034,129.975 L 72.744,140.374 L 92.329,135.396 L 96.158,150.952 L 105.418,148.358 L 102.032,133.498 L 109.71,131.61 L 113.106,146.48 L 122.862,144.403 L 119.086,128.794 C 125.15,126.959 130.107,124.037 134.199,120.22 C 141.866,110.823 139.409,97.017 126.142,93.263 C 130.023,90.858 133.682,88.158 135.212,84.203 C 138.291,76.198 134.621,63.469 125.562,59.071 C 117.261,55.042 108.307,55.917 101.452,57.763 L 96.917,41.648 Z M 112.484,86.66 C 108.539,89.814 101.336,92.134 92.066,93.959 L 86.908,73.298 C 92.498,71.684 98.077,70.419 103.656,70.145 C 117.388,69.153 119.529,81.872 112.484,86.66 Z M 113.233,117.889 C 108.539,119.966 103.825,121.137 99.132,122.171 L 94.597,103.155 C 99.248,102.058 103.91,101.014 110.839,101.014 C 120.499,102.259 123.41,112.32 113.233,117.889 Z" fill="#ffffff" stroke-width="0.232" marker-start="none" marker-end="none" stroke-miterlimit="79.8403193612775"/>
    </g>
   </g>
  </g>
 </g>
</svg>
