<?xml version="1.0" standalone="no"?>
<!DOCTYPE svg PUBLIC "-//W3C//DTD SVG 1.1//EN" "http://www.w3.org/Graphics/SVG/1.1/DTD/svg11.dtd">
<!--Generator: Xara Designer (www.xara.com), SVG filter version: 6.0.0.4-->
<svg stroke-width="0.501" stroke-linejoin="bevel" fill-rule="evenodd" xmlns:xlink="http://www.w3.org/1999/xlink" xmlns="http://www.w3.org/2000/svg" version="1.1" overflow="visible" width="144pt" height="144pt" viewBox="0 0 144 144">
 <defs>
  <marker id="DefaultArrowScaled" markerUnits="strokeWidth" viewBox="0 0 1 1" markerWidth="13" markerHeight="13" overflow="visible" orient="auto">
   <!-- REF_ARROW_ROUNDED -->
   <g transform="scale(0.0092592592)">
    <path d="M -9,0 L -9,-45 C -9,-51.708 2.808,-56.580 9,-54 L 117,-9 C 120.916,-7.369 126.000,-4.242 126,0 C 126,4.242 120.916,7.369 117,9 L 9,54 C 2.808,56.580 -9,51.708 -9,45 z"/>
   </g>
  </marker>
 </defs>
 <g id="Document" fill="none" stroke="black" font-family="Times New Roman" font-size="16" transform="scale(1 -1)">
  <g id="Spread" transform="translate(0 -144)">
   <g id="Layer 1">
    <path d="M 3.145,142.496 L 3.145,-1.503 L 147.144,-1.503 L 147.144,142.496 L 3.145,142.496 Z" stroke-linecap="round" stroke-width="0.682" stroke="none" stroke-linejoin="miter" marker-start="none" marker-end="none" stroke-miterlimit="79.8403193612775"/>
    <g id="Group" stroke-linecap="round">
     <path d="M 142.631,142.631 L 142.631,1.874 L 1.874,1.874 L 1.874,142.631 L 142.631,142.631 Z" stroke="none" stroke-width="21.229" stroke-linejoin="miter" marker-start="none" marker-end="none" stroke-miterlimit="79.8403193612775"/>
     <g id="Group_1" fill="#333333">
      <path d="M 17.849,129.1 L 37.162,109.791" fill="none" stroke="#333333" stroke-width="21.634" stroke-linejoin="round" stroke-miterlimit="79.8403193612775"/>
      <path d="M 53.981,126.134 L 21.546,94.05 C 15.768,88.331 18.277,81.954 27.146,79.811 L 64.291,70.843 C 73.16,68.699 78.711,74.17 76.68,83.048 L 68.133,120.406 C 66.102,129.285 59.759,131.853 53.981,126.134 Z" stroke="none" stroke-width="0.335" stroke-linejoin="miter" marker-end="none" marker-start="none" stroke-miterlimit="79.8403193612775"/>
     </g>
     <g id="Group_2" stroke-linejoin="miter" stroke="none" stroke-width="5.205" fill="#333333" stroke-miterlimit="79.8403193612775">
      <path d="M 122.318,56.066 C 135.404,58.164 142.642,65.227 138.485,71.817 C 134.321,78.406 120.317,82.057 107.239,79.956 C 97.985,78.472 91.658,74.512 90.212,69.989 C 96.401,67.421 101.286,63.539 103.699,58.746 C 104.069,58.017 104.362,57.3 104.598,56.575 C 109.984,55.353 116.242,55.091 122.318,56.066 Z" marker-start="none" marker-end="none"/>
      <path d="M 122.318,22.106 C 134.402,24.041 141.504,30.203 139.245,36.325 C 135.624,34.051 131.125,32.277 125.935,31.236 C 118.617,29.763 111.098,29.971 104.401,31.525 C 103.923,30.249 103.271,29.011 102.442,27.812 C 102.917,27.133 103.337,26.424 103.699,25.695 C 104.224,24.65 104.617,23.606 104.875,22.553 C 110.204,21.389 116.357,21.153 122.318,22.106 Z" marker-start="none" marker-end="none"/>
      <path d="M 122.318,39.09 C 134.402,41.022 141.504,47.191 139.245,53.306 C 135.624,51.042 131.125,49.257 125.935,48.212 C 118.725,46.759 111.318,46.936 104.702,48.432 C 104.282,47.021 103.634,45.648 102.778,44.33 C 103.109,43.809 103.429,43.266 103.699,42.714 C 104.235,41.658 104.621,40.597 104.887,39.533 C 110.212,38.369 116.361,38.122 122.318,39.09 Z" marker-start="none" marker-end="none"/>
     </g>
     <g id="Group_3" stroke-linejoin="miter" stroke="none" stroke-width="5.205" fill="#333333" stroke-miterlimit="79.8403193612775">
      <path d="M 96.329,56.004 C 92.166,62.597 78.167,66.247 65.084,64.149 C 52,62.051 44.76,54.996 48.924,48.402 C 53.087,41.809 67.086,38.159 80.169,40.257 C 93.253,42.355 100.493,49.41 96.329,56.004 Z" marker-start="none" marker-end="none"/>
      <path d="M 80.164,6.294 C 92.248,8.237 99.342,14.394 97.091,20.517 C 93.466,18.25 88.971,16.473 83.781,15.424 C 70.791,12.81 57.127,15.505 48.66,21.597 C 47.403,19.326 47.403,16.85 48.922,14.441 C 53.086,7.847 67.09,4.196 80.164,6.294 Z" marker-start="none" marker-end="none"/>
      <path d="M 80.164,23.282 C 92.248,25.217 99.342,31.379 97.091,37.498 C 93.466,35.227 88.971,33.449 83.781,32.404 C 70.791,29.782 57.127,32.485 48.66,38.585 C 47.403,36.306 47.403,33.835 48.922,31.425 C 53.086,24.832 67.09,21.18 80.164,23.282 Z" marker-start="none" marker-end="none"/>
     </g>
     <g id="Group_4" stroke-linejoin="miter" stroke="none" stroke-width="5.205" fill="#333333" stroke-miterlimit="79.8403193612775">
      <path d="M 38.014,39.468 C 38.469,39.541 38.916,39.622 39.356,39.707 C 39.769,41.299 40.463,42.841 41.419,44.326 C 41.083,44.85 40.771,45.39 40.493,45.938 C 37.663,51.594 38.781,57.439 42.865,62.282 C 37.031,63.971 29.852,64.476 22.935,63.361 C 9.841,61.26 2.608,54.208 6.768,47.615 C 10.932,41.018 24.936,37.37 38.014,39.468 Z" marker-start="none" marker-end="none"/>
      <path d="M 38.014,22.491 C 38.469,22.557 38.932,22.638 39.371,22.726 C 39.822,24.481 40.628,26.189 41.75,27.801 C 41.284,28.487 40.86,29.196 40.493,29.917 C 40.266,30.38 40.062,30.835 39.888,31.294 C 27.423,29.239 14.599,31.965 6.502,37.791 C 5.249,35.523 5.249,33.044 6.768,30.634 C 10.932,24.034 24.936,20.39 38.014,22.491 Z" marker-start="none" marker-end="none"/>
     </g>
    </g>
   </g>
  </g>
 </g>
</svg>
